# Blender 3.4.1
# www.blender.org
mtllib fence.mtl
o Fence_Full.001
v 0.311293 0.002669 -0.011277
v 0.209693 0.002669 -0.011277
v 0.311293 0.002669 0.014123
v 0.209693 0.002669 0.014123
v 0.311293 0.637669 -0.011277
v 0.209693 0.637669 -0.011277
v 0.311293 0.637669 0.014123
v 0.209693 0.637669 0.014123
v 0.260493 0.740826 -0.011277
v 0.260493 0.740826 0.014123
v 0.184293 0.002669 -0.011277
v 0.082693 0.002669 -0.011277
v 0.184293 0.002669 0.014123
v 0.082693 0.002669 0.014123
v 0.184293 0.637669 -0.011277
v 0.082693 0.637669 -0.011277
v 0.184293 0.637669 0.014123
v 0.082693 0.637669 0.014123
v 0.133493 0.740826 -0.011277
v 0.133493 0.740826 0.014123
v 0.057293 0.002669 -0.011277
v -0.044307 0.002669 -0.011277
v 0.057293 0.002669 0.014123
v -0.044307 0.002669 0.014123
v 0.057293 0.637669 -0.011277
v -0.044307 0.637669 -0.011277
v 0.057293 0.637669 0.014123
v -0.044307 0.637669 0.014123
v 0.006493 0.740826 -0.011277
v 0.006493 0.740826 0.014123
v -0.069707 0.002669 -0.011277
v -0.171307 0.002669 -0.011277
v -0.069707 0.002669 0.014123
v -0.171307 0.002669 0.014123
v -0.069707 0.637669 -0.011277
v -0.171307 0.637669 -0.011277
v -0.069707 0.637669 0.014123
v -0.171307 0.637669 0.014123
v -0.120507 0.740826 -0.011277
v -0.120507 0.740826 0.014123
v -0.196707 0.002669 -0.011277
v -0.298307 0.002669 -0.011277
v -0.196707 0.002669 0.014123
v -0.298307 0.002669 0.014123
v -0.196707 0.637669 -0.011277
v -0.298307 0.637669 -0.011277
v -0.196707 0.637669 0.014123
v -0.298307 0.637669 0.014123
v -0.247507 0.740826 -0.011277
v -0.247507 0.740826 0.014123
v 0.323608 0.419264 -0.011277
v 0.323608 0.419264 -0.036677
v 0.323608 0.520864 -0.036677
v 0.323608 0.520864 -0.011277
v 0.323608 0.152636 -0.011277
v 0.323608 0.152636 -0.036677
v 0.323608 0.254236 -0.036677
v 0.323608 0.254236 -0.011277
v -0.309409 0.419264 -0.011277
v -0.309409 0.419264 -0.036677
v -0.309409 0.520864 -0.036677
v -0.309409 0.520864 -0.011277
v -0.309409 0.152636 -0.011277
v -0.309409 0.152636 -0.036677
v -0.309409 0.254236 -0.036677
v -0.309409 0.254236 -0.011277
vn -0.0000 -1.0000 -0.0000
vn -0.0000 1.0000 -0.0000
vn 0.8971 0.4418 -0.0000
vn -0.0000 -0.0000 -1.0000
vn -1.0000 -0.0000 -0.0000
vn -0.0000 -0.0000 1.0000
vn 1.0000 -0.0000 -0.0000
vn -0.8971 0.4418 -0.0000
vt 0.000000 0.000000
vt 1.000000 0.000000
vt 1.000000 0.000000
vt 0.000000 0.000000
vt 1.000000 1.000000
vt 1.000000 0.000000
vt 0.000000 0.000000
vt 0.000000 1.000000
vt 1.000000 0.000000
vt 0.000000 0.000000
vt 0.000000 0.000000
vt 0.000000 1.000000
vt 1.000000 1.000000
vt 1.000000 1.000000
vt 0.000000 1.000000
vt 1.000000 0.000000
vt 1.000000 1.000000
vt 0.000000 1.000000
vt 0.000000 1.000000
vt 1.000000 1.000000
vt 0.500000 1.000000
vt 0.500000 0.000000
vt 0.500000 1.000000
vt 0.000000 0.000000
vt 1.000000 0.000000
vt 1.000000 0.000000
vt 0.000000 0.000000
vt 1.000000 1.000000
vt 1.000000 0.000000
vt 0.000000 0.000000
vt 0.000000 1.000000
vt 1.000000 0.000000
vt 0.000000 0.000000
vt 0.000000 0.000000
vt 0.000000 1.000000
vt 1.000000 1.000000
vt 1.000000 1.000000
vt 0.000000 1.000000
vt 1.000000 0.000000
vt 1.000000 1.000000
vt 0.000000 1.000000
vt 0.000000 1.000000
vt 1.000000 1.000000
vt 0.500000 1.000000
vt 0.500000 0.000000
vt 0.500000 1.000000
vt 0.000000 0.000000
vt 1.000000 0.000000
vt 1.000000 0.000000
vt 0.000000 0.000000
vt 1.000000 1.000000
vt 1.000000 0.000000
vt 0.000000 0.000000
vt 0.000000 1.000000
vt 1.000000 0.000000
vt 0.000000 0.000000
vt 0.000000 0.000000
vt 0.000000 1.000000
vt 1.000000 1.000000
vt 1.000000 1.000000
vt 0.000000 1.000000
vt 1.000000 0.000000
vt 1.000000 1.000000
vt 0.000000 1.000000
vt 0.000000 1.000000
vt 1.000000 1.000000
vt 0.500000 1.000000
vt 0.500000 0.000000
vt 0.500000 1.000000
vt 0.000000 0.000000
vt 1.000000 0.000000
vt 1.000000 0.000000
vt 0.000000 0.000000
vt 1.000000 1.000000
vt 1.000000 0.000000
vt 0.000000 0.000000
vt 0.000000 1.000000
vt 1.000000 0.000000
vt 0.000000 0.000000
vt 0.000000 0.000000
vt 0.000000 1.000000
vt 1.000000 1.000000
vt 1.000000 1.000000
vt 0.000000 1.000000
vt 1.000000 0.000000
vt 1.000000 1.000000
vt 0.000000 1.000000
vt 0.000000 1.000000
vt 1.000000 1.000000
vt 0.500000 1.000000
vt 0.500000 0.000000
vt 0.500000 1.000000
vt 0.000000 0.000000
vt 1.000000 0.000000
vt 1.000000 0.000000
vt 0.000000 0.000000
vt 1.000000 1.000000
vt 1.000000 0.000000
vt 0.000000 0.000000
vt 0.000000 1.000000
vt 1.000000 0.000000
vt 0.000000 0.000000
vt 0.000000 0.000000
vt 0.000000 1.000000
vt 1.000000 1.000000
vt 1.000000 1.000000
vt 0.000000 1.000000
vt 1.000000 0.000000
vt 1.000000 1.000000
vt 0.000000 1.000000
vt 0.000000 1.000000
vt 1.000000 1.000000
vt 0.500000 1.000000
vt 0.500000 0.000000
vt 0.500000 1.000000
vt 1.000000 0.000607
vt 0.000000 0.000000
vt 0.000000 0.000606
vt 0.000000 0.000000
vt 1.000000 0.000606
vt 0.999393 0.000000
vt 0.000000 0.000000
vt 0.000000 0.000607
vt 0.999394 1.000000
vt 0.000000 0.000000
vt 1.000000 0.000607
vt 0.000000 0.000000
vt 0.000000 0.000606
vt 0.000000 0.000000
vt 1.000000 0.000606
vt 0.999393 0.000000
vt 0.000000 0.000000
vt 0.000000 0.000607
vt 0.999394 1.000000
vt 0.000000 0.000000
vt 1.000000 0.997483
vt 0.000000 0.000000
vt 0.000000 0.997483
vt 0.000000 0.000000
vt 1.000000 0.997483
vt 0.002517 0.000000
vt 0.000000 0.000000
vt 0.000000 0.997483
vt 0.002517 1.000000
vt 0.000000 0.000000
vt 1.000000 0.997483
vt 0.000000 0.000000
vt 0.000000 0.997483
vt 0.000000 0.000000
vt 1.000000 0.997483
vt 0.002517 0.000000
vt 0.000000 0.000000
vt 0.000000 0.997483
vt 0.002517 1.000000
vt 0.000000 0.000000
s 1
f 1/2/1 3/5/1 4/8/1 2/4/1
f 9/22/2 10/23/2 7/18/3 5/11/3
f 5/12/4 1/1/4 2/3/4 6/14/4 9/21/4
f 2/4/5 4/9/5 8/20/5 6/15/5
f 10/23/6 8/19/6 4/10/6 3/6/6 7/17/6
f 3/7/7 1/2/7 5/13/7 7/18/7
f 6/16/8 8/20/8 10/23/2 9/22/2
f 60/138/1 52/118/1 51/116/1 59/136/1
f 62/143/2 54/123/2 53/120/2 61/140/2
f 59/136/6 51/116/6 54/124/6 62/144/6
f 61/141/4 53/121/4 52/118/4 60/138/4
f 11/25/1 13/28/1 14/31/1 12/27/1
f 19/45/2 20/46/2 17/41/3 15/34/3
f 15/35/4 11/24/4 12/26/4 16/37/4 19/44/4
f 12/27/5 14/32/5 18/43/5 16/38/5
f 20/46/6 18/42/6 14/33/6 13/29/6 17/40/6
f 13/30/7 11/25/7 15/36/7 17/41/7
f 16/39/8 18/43/8 20/46/2 19/45/2
f 21/48/1 23/51/1 24/54/1 22/50/1
f 29/68/2 30/69/2 27/64/3 25/57/3
f 25/58/4 21/47/4 22/49/4 26/60/4 29/67/4
f 22/50/5 24/55/5 28/66/5 26/61/5
f 30/69/6 28/65/6 24/56/6 23/52/6 27/63/6
f 23/53/7 21/48/7 25/59/7 27/64/7
f 26/62/8 28/66/8 30/69/2 29/68/2
f 31/71/1 33/74/1 34/77/1 32/73/1
f 39/91/2 40/92/2 37/87/3 35/80/3
f 35/81/4 31/70/4 32/72/4 36/83/4 39/90/4
f 32/73/5 34/78/5 38/89/5 36/84/5
f 40/92/6 38/88/6 34/79/6 33/75/6 37/86/6
f 33/76/7 31/71/7 35/82/7 37/87/7
f 36/85/8 38/89/8 40/92/2 39/91/2
f 41/94/1 43/97/1 44/100/1 42/96/1
f 49/114/2 50/115/2 47/110/3 45/103/3
f 45/104/4 41/93/4 42/95/4 46/106/4 49/113/4
f 42/96/5 44/101/5 48/112/5 46/107/5
f 50/115/6 48/111/6 44/102/6 43/98/6 47/109/6
f 43/99/7 41/94/7 45/105/7 47/110/7
f 46/108/8 48/112/8 50/115/2 49/114/2
f 64/148/1 56/128/1 55/126/1 63/146/1
f 66/153/2 58/133/2 57/130/2 65/150/2
f 63/146/6 55/126/6 58/134/6 66/154/6
f 57/131/4 56/128/4 64/148/4 65/151/4
f 56/129/7 57/132/7 58/135/7 55/127/7
f 51/117/7 52/119/7 53/122/7 54/125/7
s 0
f 64/149/5 63/147/5 66/155/5 65/152/5
f 60/139/5 59/137/5 62/145/5 61/142/5
