# Blender 3.4.1
# www.blender.org
mtllib rock.mtl
o Rock4
v 0.012731 0.007065 0.012299
v 0.007281 -0.000130 0.014622
v 0.006003 0.026136 -0.009432
v 0.006856 0.029181 0.011290
v -0.008474 0.029185 0.011538
v -0.007278 0.019996 -0.012781
v -0.018498 0.004536 -0.003853
v -0.000398 0.035389 -0.005485
v -0.007424 0.034913 0.000336
v 0.013729 0.026252 -0.000011
v 0.015271 0.002106 -0.003692
v -0.006354 0.004125 0.017589
v -0.011804 -0.000176 0.011898
v -0.009853 0.002325 -0.012381
v 0.001244 -0.000137 -0.013023
v 0.001643 0.035915 0.003745
vn -0.0916 -0.7502 0.6548
vn -0.9400 0.3314 0.0814
vn -0.2216 -0.9680 -0.1175
vn 0.1835 -0.9822 -0.0398
vn 0.8549 0.2479 0.4557
vn -0.6888 0.0841 -0.7200
vn 0.0158 0.2360 0.9716
vn -0.0966 0.9947 -0.0354
vn -0.2545 0.8705 0.4213
vn 0.5986 0.6269 -0.4986
vn -0.7534 0.0934 0.6509
vn -0.8323 0.3614 -0.4203
vn 0.2010 0.0968 -0.9748
vn 0.0378 0.4142 -0.9094
vn 0.2599 0.1128 0.9590
vn 0.0109 0.7498 0.6616
vn -0.9030 0.1075 0.4159
vn -0.3590 -0.9250 -0.1241
vn 0.0025 -1.0000 -0.0003
vn 0.9887 0.0412 0.1443
vn -0.0608 -0.0137 -0.9981
vn 0.5523 0.0139 -0.8335
vn 0.7643 0.1446 -0.6285
vn 0.2448 0.1130 0.9630
vn 0.6493 0.7324 0.2051
vn -0.5562 0.5457 -0.6268
vn 0.8058 -0.5173 0.2884
vn 0.5814 0.7948 -0.1739
vt 0.590616 0.573997
vt 0.031677 0.096022
vt 0.959820 0.578066
vt 0.518641 0.478987
vt 0.000998 0.001012
vt 0.986248 0.123094
vt 0.318641 0.347861
vt 0.306453 0.482267
vt 0.513029 0.866045
vt 0.045001 0.388069
vt 0.310592 0.866089
vt 0.104017 0.478987
vt 0.692627 0.388633
vt 0.810864 0.204186
vt 0.371491 0.267288
vt 0.489384 0.063140
vt 0.715854 0.918475
vt 0.210666 0.703777
vt 0.901719 0.000918
vt 0.467836 0.470557
vt 0.266511 0.470038
vt 0.117879 0.626916
vt 0.544698 0.464281
vt 0.194232 0.349393
vt 0.717981 0.472553
vt 0.242837 0.030530
vt 0.999002 0.758113
vt 0.772532 0.057718
vt 0.338593 0.535174
vt 0.697381 0.000918
vt 0.923851 0.830084
vt 0.376765 0.033944
vt 0.603235 0.804314
vt 0.776870 0.437530
vt 0.594755 0.657787
vt 0.923397 0.470038
vt 0.366063 0.000918
vt 0.237623 0.581900
vt 0.144634 0.476991
s 1
usemtl Rock1_1
f 2/3/1 12/27/1 13/31/1
f 7/16/2 5/13/2 9/23/2
f 13/31/3 14/33/3 15/35/3
f 2/3/4 15/35/4 11/25/4
f 1/2/5 10/24/5 4/10/5
f 7/16/6 6/15/6 14/32/6
f 12/29/7 4/9/7 5/11/7
f 9/22/8 16/38/8 8/18/8
f 9/22/9 5/12/9 16/38/9
f 10/24/10 3/7/10 8/21/10
f 12/28/11 5/13/11 13/30/11
f 9/23/12 6/15/12 7/16/12
f 6/14/13 3/6/13 15/36/13
f 8/19/14 3/6/14 6/14/14
f 1/1/15 4/9/15 2/4/15
f 5/12/16 4/8/16 16/38/16
f 13/30/17 5/13/17 7/16/17
f 13/31/18 7/17/18 14/33/18
f 2/3/19 13/31/19 15/35/19
f 11/26/20 10/24/20 1/2/20
f 15/36/21 14/34/21 6/14/21
f 15/37/22 3/7/22 11/26/22
f 10/24/23 11/26/23 3/7/23
f 2/4/24 4/9/24 12/29/24
f 10/24/25 16/39/25 4/10/25
f 8/20/26 6/15/26 9/23/26
f 2/5/27 11/26/27 1/2/27
f 10/24/28 8/21/28 16/39/28
