# Blender 3.4.1
# www.blender.org
mtllib stump.mtl
o Stump1
v 0.008041 0.007890 -0.000953
v 0.007262 0.012787 -0.000913
v 0.005375 0.007890 0.005267
v 0.005114 0.012787 0.005134
v -0.000641 0.007890 0.008671
v -0.000681 0.012787 0.007892
v -0.007251 0.007890 0.006323
v -0.010376 0.007890 -0.000195
v -0.009485 0.012787 -0.000051
v -0.007917 0.007890 -0.006622
v -0.007337 0.012787 -0.006098
v -0.001583 0.007890 -0.009635
v 0.005028 0.007890 -0.007287
v 0.004161 0.025546 0.004276
v 0.005981 0.025546 -0.000847
v -0.000747 0.025546 0.006611
v -0.005869 0.025546 0.004791
v -0.008205 0.025546 -0.000117
v -0.006385 0.025546 -0.005239
v -0.001477 0.024994 -0.007575
v 0.003646 0.025546 -0.005755
v 0.005114 0.025546 0.005134
v 0.007262 0.025546 -0.000913
v -0.006728 0.025546 0.005743
v -0.009485 0.025546 -0.000051
v -0.001543 0.025546 -0.008855
v 0.004505 0.025546 -0.006707
v -0.001517 0.033961 -0.008356
v -0.005090 0.031440 -0.006656
v 0.002212 0.031440 -0.007031
v -0.001476 0.033961 -0.007566
v -0.004503 0.031440 -0.006126
v 0.001682 0.031440 -0.006444
v 0.001476 0.025306 -0.000615
v -0.001284 0.025333 0.001965
v -0.003539 0.025311 -0.001344
v -0.000450 0.025313 -0.003003
v 0.004161 0.024994 0.004276
v 0.005981 0.024994 -0.000847
v -0.000747 0.024994 0.006611
v -0.005869 0.024994 0.004791
v -0.008205 0.024994 -0.000117
v -0.006385 0.024994 -0.005239
v 0.003646 0.024994 -0.005755
v -0.000681 0.025546 0.007892
v -0.007337 0.025546 -0.006098
v 0.005114 0.017315 0.005134
v 0.007262 0.017315 -0.000913
v 0.005114 0.021430 0.005134
v -0.006728 0.012787 0.005743
v -0.001543 0.012787 -0.008855
v 0.004505 0.012787 -0.006707
v 0.007262 0.021430 -0.000913
v 0.010621 0.022217 0.002195
v 0.010621 0.020617 0.002195
v 0.009626 0.020617 0.004997
v 0.009626 0.022217 0.004997
v 0.010764 0.022645 0.001793
v 0.010764 0.020190 0.001793
v 0.009483 0.020190 0.005400
v 0.009483 0.022645 0.005400
v 0.010045 0.022043 0.001991
v 0.010045 0.020443 0.001991
v 0.009049 0.020443 0.004792
v 0.009049 0.022043 0.004792
vn 0.9098 0.1417 0.3901
vn 0.4876 0.1412 0.8616
vn -0.3312 0.1457 0.9323
vn -0.8917 0.1493 0.4272
vn -0.8932 0.1462 0.4253
vn -0.8916 0.1496 0.4274
vn -0.9238 0.1471 -0.3535
vn -0.4250 0.1457 -0.8934
vn -0.3347 -0.0000 0.9423
vn 0.3312 0.1457 -0.9323
vn 0.8934 0.1457 -0.4250
vn -0.0000 -1.0000 -0.0000
vn 0.9030 -0.0000 -0.4296
vn -0.4296 -0.0000 -0.9030
vn 0.3347 -0.0000 -0.9423
vn 0.9423 -0.0000 0.3347
vn -0.0000 1.0000 -0.0000
vn -0.3350 -0.0004 0.9422
vn -0.3352 -0.0011 0.9422
vn -0.3354 -0.0009 0.9421
vn 0.3337 0.0782 -0.9394
vn -0.3803 0.8232 0.4215
vn 0.6306 0.7755 -0.0324
vn 0.7060 0.3096 0.6369
vn -0.6369 0.3096 0.7060
vn -0.4598 0.0540 -0.8864
vn 0.4299 -0.0007 0.9029
vn 0.4300 -0.0011 0.9028
vn 0.4296 -0.0006 0.9030
vn 0.0006 1.0000 0.0019
vn 0.0005 1.0000 0.0024
vn 0.0006 1.0000 0.0018
vn -0.3348 -0.0000 0.9423
vn -0.3347 -0.0006 0.9423
vn -0.9423 -0.0000 -0.3347
vn -0.9030 -0.0000 0.4296
vn 0.0703 0.9972 0.0250
vn -0.0587 0.9977 0.0330
vn -0.0586 0.9977 0.0328
vn -0.0569 0.9980 0.0271
vn -0.0317 0.9978 -0.0580
vn -0.0316 0.9978 -0.0581
vn -0.0318 0.9978 -0.0578
vn 0.0516 0.9979 -0.0388
vn 0.4296 -0.0000 0.9030
vn -0.2614 0.9608 -0.0928
vn 0.6113 -0.0000 -0.7914
vn -0.0606 -0.0000 0.9982
vn 0.5317 -0.8256 0.1889
vn 0.2581 -0.9618 0.0917
vn -0.2581 0.9618 -0.0917
vn 0.9407 0.0592 0.3341
vn 0.4291 0.0473 0.9020
vn -0.8934 0.1457 0.4250
vn -0.9272 0.1783 -0.3294
vn 0.3665 0.0540 -0.9289
vn -0.6306 0.7755 0.0324
vn 0.4215 0.8232 0.3803
vn -0.4283 0.0782 -0.9002
vn 0.4303 -0.0009 0.9027
vn 0.0021 1.0000 -0.0081
vn 0.4297 -0.0000 0.9030
vn 0.0456 0.9982 0.0386
vn 0.0327 0.9971 0.0688
vn -0.0269 0.9968 0.0757
vn -0.0588 0.9977 0.0334
vn -0.0745 0.9969 -0.0265
vn -0.0299 0.9976 -0.0628
vn 0.0268 0.9968 -0.0755
vn 0.0674 0.9972 -0.0320
vt 0.666999 0.000998
vt 0.383076 0.000998
vt 0.666300 0.086415
vt 0.558521 0.000998
vt 0.873619 0.310831
vt 0.491554 0.047507
vt 0.560832 0.086415
vt 0.869062 0.396248
vt 0.768694 0.310831
vt 0.550931 0.152432
vt 0.767994 0.396248
vt 0.653404 0.310831
vt 0.649487 0.324110
vt 0.509977 0.267722
vt 0.535793 0.324110
vt 0.396284 0.322222
vt 0.538306 0.409527
vt 0.423715 0.324110
vt 0.000944 0.455718
vt 0.284206 0.279333
vt 0.432839 0.409527
vt 0.011057 0.370301
vt 0.111425 0.455718
vt 0.231642 0.168852
vt 0.777480 0.000998
vt 0.226715 0.455718
vt 0.272595 0.053562
vt 0.453332 0.633943
vt 0.228244 0.511676
vt 0.428962 0.633943
vt 0.317582 0.479941
vt 0.453332 0.723280
vt 0.187512 0.597287
vt 0.428962 0.719554
vt 0.428962 0.808892
vt 0.423826 0.926529
vt 0.219247 0.686625
vt 0.304858 0.727356
vt 0.423826 0.840917
vt 0.423826 0.751580
vt 0.394196 0.695622
vt 0.263389 0.941510
vt 0.253771 0.855898
vt 0.118290 0.999002
vt 0.403193 0.520673
vt 0.263389 0.766561
vt 0.453332 0.808892
vt 0.677773 0.739410
vt 0.869062 0.618775
vt 0.560832 0.308943
vt 0.213263 0.495070
vt 0.666300 0.308942
vt 0.318731 0.457606
vt 0.662527 0.618775
vt 0.639374 0.632054
vt 0.202642 0.701605
vt 0.303709 0.749691
vt 0.538306 0.632054
vt 0.112125 0.147773
vt 0.217592 0.147773
vt 0.767367 0.308942
vt 0.419799 0.505692
vt 0.263389 0.751580
vt 0.112573 0.000998
vt 0.497352 0.698971
vt 0.467704 0.761286
vt 0.366194 0.918914
vt 0.050258 0.044969
vt 0.177601 0.044969
vt 0.474253 0.633943
vt 0.366194 0.791571
vt 0.483581 0.698263
vt 0.410165 0.855891
vt 0.458467 0.751048
vt 0.366194 0.908676
vt 0.366194 0.800808
vt 0.464015 0.643180
vt 0.169786 0.877608
vt 0.121652 0.832613
vt 0.082316 0.890326
vt 0.136194 0.919252
vt 0.438579 0.633943
vt 0.443714 0.633943
vt 0.216625 0.792311
vt 0.443714 0.723280
vt 0.248360 0.881649
vt 0.438579 0.719554
vt 0.131014 0.751580
vt 0.414209 0.926529
vt 0.438579 0.808892
vt 0.041676 0.783314
vt 0.414209 0.840917
vt 0.000944 0.868925
vt 0.414209 0.751580
vt 0.253772 0.941510
vt 0.032679 0.958263
vt 0.253772 0.766561
vt 0.443714 0.808892
vt 0.207628 0.967260
vt 0.165177 0.596138
vt 0.767994 0.618775
vt 0.263389 0.958115
vt 0.432839 0.632054
vt 0.409177 0.712227
vt 0.011057 0.147773
vt 0.869062 0.475220
vt 0.560832 0.165387
vt 0.666300 0.165387
vt 0.605996 0.739410
vt 0.502726 0.638570
vt 0.869062 0.546998
vt 0.639374 0.409527
vt 0.662527 0.396248
vt 0.112125 0.370301
vt 0.217592 0.370301
vt 0.767367 0.086415
vt 0.605996 0.633943
vt 0.540190 0.744037
vt 0.666300 0.237165
vt 0.710860 0.624235
vt 0.612093 0.250889
vt 0.804149 0.651611
vt 0.612092 0.222981
vt 0.804149 0.623702
vt 0.742210 0.669528
vt 0.724852 0.620664
vt 0.789396 0.648572
vt 0.563229 0.222981
vt 0.789396 0.620664
vt 0.563229 0.250889
vt 0.693502 0.673099
vt 0.601278 0.696854
vt 0.619116 0.258343
vt 0.619116 0.215527
vt 0.945267 0.525360
vt 0.556205 0.215527
vt 0.945267 0.568175
vt 0.578931 0.633943
vt 0.556205 0.258343
vt 0.774056 0.620664
vt 0.794095 0.648572
vt 0.700806 0.620664
vt 0.794095 0.620664
vt 0.746148 0.620664
vt 0.732156 0.673099
vt 0.746148 0.669528
vt 0.779342 0.651611
vt 0.714798 0.624235
vt 0.779342 0.623702
vt 0.774056 0.669528
vt 0.683448 0.669528
s 1
usemtl Stump1_1
f 2/3/1 3/4/1 1/1/1
f 3/5/2 6/11/2 5/9/2
f 6/11/3 7/12/3 5/9/3
f 7/13/4 9/17/5 8/15/6
f 8/15/7 11/21/7 10/18/7
f 11/22/8 12/23/8 10/19/8
f 45/101/9 24/54/9 50/113/9
f 51/114/10 13/26/10 12/23/10
f 52/116/11 1/1/11 13/25/11
f 12/24/12 13/27/12 3/6/12
f 17/36/13 42/92/13 18/39/13
f 46/105/14 26/59/14 51/114/14
f 51/114/15 27/60/15 52/115/15
f 52/116/13 23/52/13 53/119/13
f 53/117/16 22/48/16 49/109/16
f 14/29/17 23/53/17 15/31/17
f 16/33/17 22/51/17 14/29/17
f 17/37/17 45/100/17 16/33/17
f 18/38/17 24/56/17 17/37/17
f 18/38/17 46/104/17 25/57/17
f 20/43/18 33/76/19 31/73/20
f 26/59/21 30/69/21 27/60/21
f 15/31/17 27/62/17 21/45/17
f 32/74/22 28/65/22 29/66/22
f 33/77/23 28/65/23 31/72/23
f 21/46/24 30/71/24 33/76/24
f 19/42/25 29/67/25 46/102/25
f 26/59/26 29/68/26 28/64/26
f 20/43/27 32/75/28 19/42/29
f 34/78/30 37/81/31 36/80/32
f 14/30/14 40/87/14 16/34/14
f 20/43/18 44/97/33 21/46/34
f 18/39/16 43/94/16 19/40/16
f 16/34/15 41/90/15 17/35/15
f 15/32/35 38/83/35 14/28/35
f 21/47/36 39/85/36 15/32/36
f 2/3/16 47/107/16 4/7/16
f 52/116/13 48/108/13 2/3/13
f 11/21/35 25/58/35 46/103/35
f 4/8/45 45/101/45 6/11/45
f 9/17/36 50/112/36 25/58/36
f 49/110/46 58/132/46 53/118/46
f 52/116/13 53/119/13 48/108/13
f 56/127/15 65/149/15 57/129/15
f 53/119/47 59/134/47 48/108/47
f 49/111/48 60/135/48 61/137/48
f 47/107/49 59/134/49 60/136/49
f 55/123/16 58/133/16 54/121/16
f 56/128/16 59/134/16 55/123/16
f 57/130/16 60/136/16 56/128/16
f 57/130/16 58/133/16 61/139/16
f 55/124/9 62/141/9 63/143/9
f 57/131/50 62/142/50 54/120/50
f 55/125/51 64/148/51 56/126/51
f 2/3/52 4/7/52 3/4/52
f 3/5/53 4/8/53 6/11/53
f 6/11/3 50/113/3 7/12/3
f 7/13/4 50/112/54 9/17/5
f 8/15/55 9/17/55 11/21/55
f 11/22/8 51/114/8 12/23/8
f 51/114/10 52/115/10 13/26/10
f 52/116/11 2/3/11 1/1/11
f 13/27/12 1/2/12 3/6/12
f 3/6/12 5/10/12 7/14/12
f 7/14/12 8/16/12 3/6/12
f 8/16/12 10/20/12 3/6/12
f 10/20/12 12/24/12 3/6/12
f 17/36/13 41/89/13 42/92/13
f 50/112/36 24/55/36 25/58/36
f 51/114/15 26/59/15 27/60/15
f 49/111/45 22/49/45 45/101/45
f 52/116/13 27/61/13 23/52/13
f 53/119/16 23/52/16 22/50/16
f 14/29/17 22/51/17 23/53/17
f 16/33/17 45/100/17 22/51/17
f 17/37/17 24/56/17 45/100/17
f 18/38/17 25/57/17 24/56/17
f 18/38/17 19/41/17 46/104/17
f 20/43/18 21/46/34 33/76/19
f 26/59/56 28/64/56 30/69/56
f 15/31/17 23/53/17 27/62/17
f 32/74/57 31/72/57 28/65/57
f 33/77/58 30/70/58 28/65/58
f 21/46/24 27/63/24 30/71/24
f 19/42/25 32/75/25 29/67/25
f 26/59/59 46/105/59 29/68/59
f 20/43/27 31/73/60 32/75/28
f 35/79/61 34/78/30 36/80/32
f 14/30/14 38/82/14 40/87/14
f 18/39/16 42/92/16 43/94/16
f 16/34/15 40/87/15 41/90/15
f 15/32/35 39/85/35 38/83/35
f 21/47/36 44/98/36 39/85/36
f 19/42/29 43/95/62 20/43/27
f 2/3/16 48/108/16 47/107/16
f 11/21/35 9/17/35 25/58/35
f 4/8/45 47/106/45 45/101/45
f 11/22/14 46/105/14 51/114/14
f 6/11/9 45/101/9 50/113/9
f 49/110/46 61/138/46 58/132/46
f 47/106/45 49/111/45 45/101/45
f 56/127/15 64/147/15 65/149/15
f 53/119/47 58/133/47 59/134/47
f 49/111/48 47/106/48 60/135/48
f 47/107/49 48/108/49 59/134/49
f 55/123/16 59/134/16 58/133/16
f 56/128/16 60/136/16 59/134/16
f 57/130/16 61/139/16 60/136/16
f 57/130/16 54/121/16 58/133/16
f 55/124/9 54/122/9 62/141/9
f 57/131/50 65/151/50 62/142/50
f 55/125/51 63/145/51 64/148/51
usemtl Stump1_2
f 34/78/37 38/84/37 39/86/37
f 35/79/38 42/93/39 41/91/40
f 37/81/41 43/96/42 36/80/43
f 34/78/44 44/99/44 37/81/44
f 63/144/16 65/150/16 64/146/16
f 34/78/63 35/79/63 38/84/63
f 35/79/64 40/88/64 38/84/64
f 35/79/65 41/91/65 40/88/65
f 35/79/38 36/80/66 42/93/39
f 36/80/67 43/96/67 42/93/67
f 37/81/41 20/44/68 43/96/42
f 37/81/69 44/99/69 20/44/69
f 34/78/70 39/86/70 44/99/70
f 63/144/16 62/140/16 65/150/16
